<?xml version="1.0" encoding="UTF-8" standalone="no"?>
<!-- Creator: CorelDRAW -->

<svg
   xmlns:dc="http://purl.org/dc/elements/1.1/"
   xmlns:cc="http://creativecommons.org/ns#"
   xmlns:rdf="http://www.w3.org/1999/02/22-rdf-syntax-ns#"
   xmlns:svg="http://www.w3.org/2000/svg"
   xmlns="http://www.w3.org/2000/svg"
   xmlns:xlink="http://www.w3.org/1999/xlink"
   xmlns:sodipodi="http://sodipodi.sourceforge.net/DTD/sodipodi-0.dtd"
   xmlns:inkscape="http://www.inkscape.org/namespaces/inkscape"
   xml:space="preserve"
   width="380"
   height="120"
   style="fill-rule:evenodd"
   viewBox="0 0 107.24446 33.866667"
   id="svg3388"
   version="1.1"
   inkscape:version="0.48.4 r9939"
   sodipodi:docname="logox.svg"
   inkscape:export-filename="/home/neko/Documentos/AppTigre/LOGOtigred.svg.png"
   inkscape:export-xdpi="90"
   inkscape:export-ydpi="90"><metadata
     id="metadata3406"><rdf:RDF><cc:Work
         rdf:about=""><dc:format>image/svg+xml</dc:format><dc:type
           rdf:resource="http://purl.org/dc/dcmitype/StillImage" /><dc:title /></cc:Work></rdf:RDF></metadata><sodipodi:namedview
     pagecolor="#ffffff"
     bordercolor="#666666"
     borderopacity="1"
     objecttolerance="10"
     gridtolerance="10"
     guidetolerance="10"
     inkscape:pageopacity="0"
     inkscape:pageshadow="2"
     inkscape:window-width="1366"
     inkscape:window-height="744"
     id="namedview3404"
     showgrid="false"
     inkscape:zoom="2.1444264"
     inkscape:cx="181.41873"
     inkscape:cy="32.353073"
     inkscape:window-x="0"
     inkscape:window-y="24"
     inkscape:window-maximized="1"
     inkscape:current-layer="svg3388"
     showguides="true"
     inkscape:guide-bbox="true"
     width="744.09px" /><defs
     id="defs3390"><linearGradient
       inkscape:collect="always"
       id="linearGradient3716"><stop
         style="stop-color:#ffff00;stop-opacity:1;"
         offset="0"
         id="stop3718" /><stop
         style="stop-color:#ffff00;stop-opacity:0;"
         offset="1"
         id="stop3720" /></linearGradient><linearGradient
       inkscape:collect="always"
       id="linearGradient3528"><stop
         style="stop-color:#ffffff;stop-opacity:1"
         offset="0"
         id="stop3530" /><stop
         style="stop-color:#000000;stop-opacity:0;"
         offset="1"
         id="stop3532" /></linearGradient><inkscape:path-effect
       effect="bend_path"
       id="path-effect3502"
       is_visible="true"
       bendpath="m 0,61.941587 265.26756,0"
       prop_scale="1"
       scale_y_rel="false"
       vertical="false" /><linearGradient
       inkscape:collect="always"
       id="linearGradient3492"><stop
         style="stop-color:#ffffff;stop-opacity:1"
         offset="0"
         id="stop3494" /><stop
         style="stop-color:#000000;stop-opacity:0;"
         offset="1"
         id="stop3496" /></linearGradient><linearGradient
       id="linearGradient3462"><stop
         style="stop-color:#ffffff;stop-opacity:1"
         offset="0"
         id="stop3464" /><stop
         style="stop-color:#000000;stop-opacity:0;"
         offset="1"
         id="stop3466" /></linearGradient><style
       type="text/css"
       id="style3392">
    .fil3 {fill:yellow}
    .fil0 {fill:#8FB4E1}
    .fil2 {fill:#BBBBBA}
    .fil1 {fill:#D69595}
   </style><linearGradient
       inkscape:collect="always"
       xlink:href="#linearGradient3462"
       id="linearGradient3468"
       x1="206.36156"
       y1="59.446617"
       x2="236.99126"
       y2="144.00705"
       gradientUnits="userSpaceOnUse" /><linearGradient
       inkscape:collect="always"
       xlink:href="#linearGradient3492"
       id="linearGradient3498"
       x1="185.625"
       y1="122.34375"
       x2="218.625"
       y2="73.101562"
       gradientUnits="userSpaceOnUse" /><linearGradient
       inkscape:collect="always"
       xlink:href="#linearGradient3528"
       id="linearGradient3534"
       x1="184.48859"
       y1="119.76102"
       x2="241.73108"
       y2="60.330906"
       gradientUnits="userSpaceOnUse" /><linearGradient
       inkscape:collect="always"
       xlink:href="#linearGradient3528"
       id="linearGradient3570"
       gradientUnits="userSpaceOnUse"
       x1="184.48859"
       y1="119.76102"
       x2="241.73108"
       y2="60.330906" /><linearGradient
       inkscape:collect="always"
       xlink:href="#linearGradient3716"
       id="linearGradient3652"
       gradientUnits="userSpaceOnUse"
       x1="186.67619"
       y1="122.49554"
       x2="244.6479"
       y2="43.74152" /><linearGradient
       inkscape:collect="always"
       xlink:href="#linearGradient3528"
       id="linearGradient3714"
       gradientUnits="userSpaceOnUse"
       x1="184.48859"
       y1="119.76102"
       x2="241.73108"
       y2="60.330906" /><linearGradient
       inkscape:collect="always"
       xlink:href="#linearGradient3716"
       id="linearGradient3730"
       gradientUnits="userSpaceOnUse"
       x1="186.67619"
       y1="122.49554"
       x2="244.6479"
       y2="43.74152" /><linearGradient
       inkscape:collect="always"
       xlink:href="#linearGradient3528"
       id="linearGradient3903"
       gradientUnits="userSpaceOnUse"
       x1="184.48859"
       y1="119.76102"
       x2="241.73108"
       y2="60.330906" /><linearGradient
       inkscape:collect="always"
       xlink:href="#linearGradient3528"
       id="linearGradient3905"
       gradientUnits="userSpaceOnUse"
       x1="184.48859"
       y1="119.76102"
       x2="241.73108"
       y2="60.330906" /><linearGradient
       inkscape:collect="always"
       xlink:href="#linearGradient3528"
       id="linearGradient4100"
       gradientUnits="userSpaceOnUse"
       gradientTransform="matrix(0.30741318,0,0,0.30741318,32.507078,109.70033)"
       x1="184.48859"
       y1="119.76102"
       x2="241.73108"
       y2="60.330906" /><linearGradient
       inkscape:collect="always"
       xlink:href="#linearGradient3528"
       id="linearGradient4102"
       gradientUnits="userSpaceOnUse"
       gradientTransform="matrix(0.30741318,0,0,0.30741318,38.04447,109.95099)"
       x1="184.48859"
       y1="119.76102"
       x2="241.73108"
       y2="60.330906" /></defs><g
     style="font-size:35.63471222px;font-style:normal;font-variant:normal;font-weight:normal;font-stretch:normal;line-height:125%;letter-spacing:0px;word-spacing:0px;fill:#ffffff;fill-opacity:1;stroke:#000000;stroke-width:0.02822222;stroke-miterlimit:4;stroke-opacity:1;font-family:Teacher_A;-inkscape-font-specification:Teacher_A"
     id="text3074"
     transform="translate(-103.97265,-50.316618)"><path
       d="m 172.38407,72.220962 c -1e-5,-0.835177 0.28999,-1.531167 0.86999,-2.087971 0.55678,-0.57998 1.25277,-0.869975 2.08797,-0.869988 1.25277,1.3e-5 2.31996,-0.440781 3.20156,-1.322382 0.88157,-0.904773 1.32236,-1.971957 1.32238,-3.201556 -2e-5,-1.229565 -0.44081,-2.285149 -1.32238,-3.166757 -0.8816,-0.904766 -1.93719,-1.357159 -3.16676,-1.357181 -1.25279,2.2e-5 -2.31998,0.452415 -3.20156,1.357181 -0.88159,0.881608 -1.32238,1.937192 -1.32238,3.166757 l 0,11.240246 c 0,0.835194 -0.3016,1.542783 -0.90479,2.122771 -0.57999,0.556796 -1.27598,0.835192 -2.08797,0.835188 -0.83519,4e-6 -1.54278,-0.278392 -2.12277,-0.835188 -0.55679,-0.579988 -0.83519,-1.287577 -0.83519,-2.122771 l 0,-11.449043 c 0.0928,-2.807141 1.11359,-5.196706 3.06236,-7.168702 1.97197,-1.995146 4.44273,-3.027531 7.4123,-3.097158 2.94635,0.06963 5.39391,1.102012 7.3427,3.097158 1.97195,1.971996 3.00434,4.431159 3.09716,7.377499 -0.0928,2.946374 -1.21801,5.509936 -3.37556,7.690694 l 1.73998,0.869989 c 0.34797,0.185606 0.69597,0.487201 1.04399,0.904787 0.34797,0.417602 0.54517,1.009193 0.59159,1.774776 -2e-5,0.835194 -0.30162,1.542783 -0.90479,2.122771 -0.58001,0.556796 -1.276,0.835192 -2.08797,0.835188 -0.48721,4e-6 -0.92801,-0.09279 -1.32238,-0.278396 l -7.5515,-3.758348 c -0.32481,-0.18559 -0.6496,-0.463986 -0.97439,-0.835189 -0.3016,-0.371186 -0.4988,-0.985977 -0.59159,-1.844375"
       style="fill:#ffffff"
       id="path3188"
       inkscape:connector-curvature="0" /><path
       d="m 207.67079,66.653039 c -2e-5,0.835203 -0.29002,1.542792 -0.86999,2.12277 -0.55681,0.556806 -1.2528,0.835202 -2.08797,0.835189 l -5.63752,0 c -0.812,1.3e-5 -1.51959,-0.278383 -2.12278,-0.835189 -0.58,-0.579978 -0.86999,-1.287567 -0.86998,-2.12277 -1e-5,-0.811973 0.28998,-1.507963 0.86998,-2.087972 0.60319,-0.603173 1.31078,-0.904769 2.12278,-0.904788 l 5.63752,0 c 0.83517,1.9e-5 1.53116,0.301615 2.08797,0.904788 0.57997,0.580009 0.86997,1.275999 0.86999,2.087972 m 1.87917,9.326272 c -2e-5,0.835194 -0.29002,1.542783 -0.86999,2.122771 -0.55681,0.556796 -1.2528,0.835192 -2.08797,0.835188 l -7.58629,0 c -2.89997,-0.06959 -5.33594,-1.09038 -7.3079,-3.062358 -1.94878,-1.995164 -2.96956,-4.396329 -3.06236,-7.203501 l 0,-4.141143 c 0.0928,-2.807141 1.11358,-5.196706 3.06236,-7.168702 1.94876,-1.971946 4.34993,-3.004331 7.2035,-3.097158 l 7.69069,0 c 0.83517,2.8e-5 1.53116,0.290024 2.08797,0.869988 0.57997,0.556819 0.86997,1.252809 0.86999,2.087972 -2e-5,0.812013 -0.29002,1.519602 -0.86999,2.122771 -0.55681,0.580014 -1.2528,0.87001 -2.08797,0.869988 l -7.4819,0 c -1.25279,2.2e-5 -2.31997,0.452415 -3.20155,1.357181 -0.8816,0.881608 -1.32239,1.937192 -1.32238,3.166757 l 0,3.723549 c -1e-5,1.229595 0.44078,2.29678 1.32238,3.201556 0.88158,0.881598 1.94876,1.322391 3.20155,1.322382 l 0.0348,0 7.4471,0 c 0.83517,9e-6 1.53116,0.301605 2.08797,0.904787 0.57997,0.58 0.86997,1.27599 0.86999,2.087972"
       style="fill:#ffffff"
       id="path3190"
       inkscape:connector-curvature="0" /></g><g
     style="font-size:35.63471222px;font-style:normal;font-variant:normal;font-weight:normal;font-stretch:normal;line-height:125%;letter-spacing:0px;word-spacing:0px;fill:#ffffff;fill-opacity:1;stroke:#000000;stroke-width:0.02822222;stroke-miterlimit:4;stroke-opacity:1;font-family:Teacher_A;-inkscape-font-specification:Teacher_A"
     id="text3078"
     transform="translate(-103.97265,-50.316618)"><path
       d="m 106.04467,57.235576 c 0,-0.811963 0.27839,-1.507953 0.83519,-2.087971 0.57999,-0.603165 1.28758,-0.90476 2.12277,-0.904788 l 14.96379,0 c 0.81197,2.8e-5 1.50796,0.301623 2.08797,0.904788 0.60317,0.580018 0.90477,1.276008 0.90479,2.087971 -2e-5,0.835213 -0.30162,1.542802 -0.90479,2.122771 -0.58001,0.556815 -1.276,0.83521 -2.08797,0.835188 l -4.48914,0 0,8.282287 c -10e-6,1.229596 0.44078,2.29678 1.32239,3.201556 0.88157,0.881598 1.94875,1.322391 3.20155,1.322382 0.78877,9e-6 1.47316,0.290005 2.05317,0.869988 0.60317,0.5568 0.90477,1.25279 0.90479,2.087972 -2e-5,0.811994 -0.29002,1.507984 -0.86999,2.087971 -0.58001,0.579996 -1.276,0.881591 -2.08797,0.904788 -2.94637,-0.0464 -5.40554,-1.067181 -7.3775,-3.062358 -1.97198,-1.995165 -3.00436,-4.396329 -3.09715,-7.203502 l 0,-8.491084 -4.52394,0 c -0.83519,2.2e-5 -1.54278,-0.278373 -2.12277,-0.835188 -0.5568,-0.579969 -0.83519,-1.287558 -0.83519,-2.122771"
       style="fill:#ffffff"
       id="path3183"
       inkscape:connector-curvature="0" /><path
       d="m 132.7359,54.242817 c 0.81199,2.8e-5 1.50798,0.301623 2.08797,0.904788 0.60319,0.580018 0.90478,1.276008 0.90479,2.087971 l 0,18.722144 c -1e-5,0.835194 -0.3016,1.542783 -0.90479,2.122771 -0.57999,0.556796 -1.27598,0.835191 -2.08797,0.835188 -0.83519,3e-6 -1.54278,-0.278392 -2.12277,-0.835188 -0.55679,-0.579988 -0.83519,-1.287577 -0.83519,-2.122771 l 0,-18.722144 c 0,-0.811963 0.2784,-1.507953 0.83519,-2.087971 0.57999,-0.603165 1.28758,-0.90476 2.12277,-0.904788"
       style="fill:#ffffff"
       id="path3185"
       inkscape:connector-curvature="0" /></g><path
     sodipodi:nodetypes="ccccsc"
     class="fil2"
     d="m 46.680912,4.4103647 c 0.0524,2.0853886 0.20383,3.9708286 0.27287,5.9689883 1.63911,0.0969 3.48825,0.80793 4.58143,1.87555 l 4.30988,-4.1837897 -0.35606,-0.3668 c -2.12153,-2.1854596 -6.72092,-3.6748986 -8.80812,-3.2939486 z"
     id="path3082"
     inkscape:connector-curvature="0"
     style="fill:#00ff00;stroke:#ffffff;stroke-width:0.59266669;stroke-miterlimit:4;stroke-opacity:1;stroke-dasharray:none"
     inkscape:export-filename="C:\Users\Roberta Cardoso\Downloads\logo.svg.png"
     inkscape:export-xdpi="90"
     inkscape:export-ydpi="90" /><path
     style="fill:#ffff00;stroke:#ffffff;stroke-width:0.59266669;stroke-miterlimit:4;stroke-opacity:1;stroke-dasharray:none"
     d="m 41.362432,13.914663 c -3.73915,7.903242 6.11219,13.809451 10.74937,8.052611 l -0.0101,-0.009 c 1.07318,-0.0165 1.41991,0.16109 4.91921,3.32085 -4.015,4.47954 -9.21499,5.23618 -13.02958,4.274141 -3.42947,-0.70118 -6.42109,-3.591231 -7.93524,-6.093961 -3.03126,-5.122599 -0.92368,-11.377181 0.23269,-12.642671 z"
     id="path3084"
     inkscape:connector-curvature="0"
     sodipodi:nodetypes="cccccccc"
     inkscape:export-filename="C:\Users\Roberta Cardoso\Downloads\logo.svg.png"
     inkscape:export-xdpi="90"
     inkscape:export-ydpi="90" /><path
     sodipodi:nodetypes="ccsccccccccc"
     class="fil1"
     d="m 41.622222,5.7272637 c -1.36666,0.6653996 -2.44011,1.6036296 -3.40088,2.5363896 -0.32383,0.31437 -1.90862,2.1702897 -1.70586,2.3791397 0.19682,0.20275 3.53605,1.95656 3.66785,2.03135 l 1.32332,0.83675 c 0.13375,-0.23811 0.31225,-0.47776 0.41532,-0.58128 0.40468,-0.50769 0.87466,-0.84828 1.28246,-1.156 0.80993,-0.58952 1.62646,-0.99394 2.63648,-1.2712 0.22992,-0.0418 0.50959,-0.0595 0.72758,-0.0598 0.0401,-0.0388 -0.25179,-5.5178283 -0.33035,-5.9484983 -1.63032,0.12738 -3.13433,0.57884 -4.61592,1.233089 z"
     id="path3086"
     inkscape:connector-curvature="0"
     style="fill:#ff0000;stroke:#ffffff;stroke-width:0.59266669;stroke-miterlimit:4;stroke-opacity:1;stroke-dasharray:none"
     inkscape:export-filename="C:\Users\Roberta Cardoso\Downloads\logo.svg.png"
     inkscape:export-xdpi="90"
     inkscape:export-ydpi="90" /><path
     style="fill:#00ff00;stroke:#ffffff;stroke-width:0.678101;stroke-miterlimit:4;stroke-opacity:1;stroke-dasharray:none"
     inkscape:connector-curvature="0"
     id="path3088"
     d="m 52.856919,18.961643 -3.516335,0.03558 c -0.332055,0.101486 -1.751045,-0.06487 -1.860117,0.180044 -0.06464,0.145192 0.765621,0.629524 0.8853,0.809659 0.404115,0.22184 1.047059,0.817359 1.42329,1.095823 0.294391,0.217801 1.28144,0.862544 1.27556,1.152427 -0.0023,0.110867 -0.886731,3.539961 -0.953893,3.690737 l -0.116085,0.660257 c 0.333738,0.0532 1.667214,-1.214256 2.011489,-1.497216 0.681606,-0.560223 1.328944,-1.091944 1.99714,-1.641595 0.665417,-0.547317 3.504814,-3.027496 4.003276,-3.259839 0.456916,-0.424938 0.93428,-0.86649 1.327216,-1.248042 l -10e-4,-0.06636 z"
     class="fil3"
     sodipodi:nodetypes="ccscccccsscccc"
     inkscape:export-filename="C:\Users\Roberta Cardoso\Downloads\logo.svg.png"
     inkscape:export-xdpi="90"
     inkscape:export-ydpi="90" /></svg>